<svg id="eKpQyEMf5DP1" xmlns="http://www.w3.org/2000/svg" xmlns:xlink="http://www.w3.org/1999/xlink" viewBox="0 0 238 180" shape-rendering="geometricPrecision" text-rendering="geometricPrecision" project-id="0928a4fcc3d24e898df2a65a439026fc" export-id="7f068e4bcdf0403db07b84741ea0000b" cached="false"><defs><radialGradient id="eKpQyEMf5DP3-fill" cx="0" cy="0" r="1" spreadMethod="pad" gradientUnits="userSpaceOnUse" gradientTransform="matrix(62.886154 -62.886154 110.61541 110.61541 57.110481 122.590141)"><stop id="eKpQyEMf5DP3-fill-0" offset="0%" stop-color="#ffffff"/><stop id="eKpQyEMf5DP3-fill-1" offset="100%" stop-color="#d1d1d1"/></radialGradient><linearGradient id="eKpQyEMf5DP4-fill" x1="0.069236" y1="0.921754" x2="0.700435" y2="0.105511" spreadMethod="pad" gradientUnits="objectBoundingBox" gradientTransform="translate(0 0)"><stop id="eKpQyEMf5DP4-fill-0" offset="0%" stop-color="#d1d6d6"/><stop id="eKpQyEMf5DP4-fill-1" offset="100%" stop-color="#ffffff"/></linearGradient></defs><g transform="matrix(1.01 0 0 1.01 -0.185385 -0.898495)" clip-rule="evenodd"><path d="M1.803,67.282L64.689,4.396l62.886,62.886-41.762,42.086l47.567,47.567-20.962,20.962L1.802,67.282h.001ZM64.528,46.159L85.49,67.121L64.528,88.083L43.566,67.121L64.528,46.159Z" transform="translate(7 -1)" clip-rule="evenodd" fill="url(#eKpQyEMf5DP3-fill)" fill-rule="evenodd" stroke="#ff7b1a" stroke-width="2" stroke-linecap="square" stroke-linejoin="round" stroke-miterlimit="1.5"/><path d="M172.389,1.803l62.886,62.886-62.886,62.886-42.086-41.762L82.736,133.38L61.774,112.418L172.389,1.802v.001Zm21.123,62.725L172.55,85.49L151.588,64.528L172.55,43.566l20.962,20.962Z" transform="translate(-6 1)" clip-rule="evenodd" fill="url(#eKpQyEMf5DP4-fill)" fill-rule="evenodd" stroke="#46e47f" stroke-width="2" stroke-linecap="square" stroke-linejoin="round" stroke-miterlimit="1.5"/></g></svg>
